<mxfile host="app.diagrams.net" agent="Mozilla/5.0 (Windows NT 10.0; Win64; x64) AppleWebKit/537.36 (KHTML, like Gecko) Chrome/130.0.0.0 Safari/537.36" version="24.8.3">
  <diagram name="Page-1" id="vCg_MlWZA_7JhtkfMOp2">
    <mxGraphModel dx="2074" dy="1104" grid="1" gridSize="10" guides="1" tooltips="1" connect="1" arrows="1" fold="1" page="1" pageScale="1" pageWidth="850" pageHeight="1100" math="0" shadow="0">
      <root>
        <mxCell id="0" />
        <mxCell id="1" parent="0" />
        <mxCell id="FswJCTiF_LaIAhzLPm2B-1" value="" style="whiteSpace=wrap;html=1;aspect=fixed;fillColor=default;" parent="1" vertex="1">
          <mxGeometry x="153" y="278" width="545" height="545" as="geometry" />
        </mxCell>
        <mxCell id="FswJCTiF_LaIAhzLPm2B-2" value="" style="rounded=0;whiteSpace=wrap;html=1;" parent="1" vertex="1">
          <mxGeometry x="153" y="278" width="545" height="60" as="geometry" />
        </mxCell>
        <mxCell id="FswJCTiF_LaIAhzLPm2B-71" value="Payments" style="text;html=1;align=center;verticalAlign=middle;whiteSpace=wrap;rounded=0;" parent="1" vertex="1">
          <mxGeometry x="365" y="350" width="60" height="30" as="geometry" />
        </mxCell>
        <mxCell id="FswJCTiF_LaIAhzLPm2B-72" value="Income" style="text;html=1;align=center;verticalAlign=middle;whiteSpace=wrap;rounded=0;" parent="1" vertex="1">
          <mxGeometry x="445.5" y="350" width="60" height="30" as="geometry" />
        </mxCell>
        <mxCell id="FswJCTiF_LaIAhzLPm2B-75" value="" style="rounded=0;whiteSpace=wrap;html=1;" parent="1" vertex="1">
          <mxGeometry x="170" y="400" width="520" height="410" as="geometry" />
        </mxCell>
        <mxCell id="FswJCTiF_LaIAhzLPm2B-76" value="Real Date" style="rounded=0;whiteSpace=wrap;html=1;" parent="1" vertex="1">
          <mxGeometry x="170" y="400" width="80" height="30" as="geometry" />
        </mxCell>
        <mxCell id="FswJCTiF_LaIAhzLPm2B-77" value="User" style="ellipse;whiteSpace=wrap;html=1;aspect=fixed;" parent="1" vertex="1">
          <mxGeometry x="640" y="278" width="58" height="58" as="geometry" />
        </mxCell>
        <mxCell id="FswJCTiF_LaIAhzLPm2B-81" value="In-Game Date" style="rounded=0;whiteSpace=wrap;html=1;" parent="1" vertex="1">
          <mxGeometry x="250" y="400" width="80" height="30" as="geometry" />
        </mxCell>
        <mxCell id="FswJCTiF_LaIAhzLPm2B-82" value="PP" style="rounded=0;whiteSpace=wrap;html=1;" parent="1" vertex="1">
          <mxGeometry x="330" y="400" width="40" height="30" as="geometry" />
        </mxCell>
        <mxCell id="FswJCTiF_LaIAhzLPm2B-83" value="GP" style="rounded=0;whiteSpace=wrap;html=1;" parent="1" vertex="1">
          <mxGeometry x="370" y="400" width="40" height="30" as="geometry" />
        </mxCell>
        <mxCell id="FswJCTiF_LaIAhzLPm2B-84" value="SP" style="rounded=0;whiteSpace=wrap;html=1;" parent="1" vertex="1">
          <mxGeometry x="405.5" y="400" width="40" height="30" as="geometry" />
        </mxCell>
        <mxCell id="FswJCTiF_LaIAhzLPm2B-85" value="CP" style="rounded=0;whiteSpace=wrap;html=1;" parent="1" vertex="1">
          <mxGeometry x="445.5" y="400" width="40" height="30" as="geometry" />
        </mxCell>
        <mxCell id="FswJCTiF_LaIAhzLPm2B-86" value="Description" style="rounded=0;whiteSpace=wrap;html=1;" parent="1" vertex="1">
          <mxGeometry x="485.5" y="400" width="80" height="30" as="geometry" />
        </mxCell>
        <mxCell id="FswJCTiF_LaIAhzLPm2B-87" value="Payer&lt;span style=&quot;color: rgba(0, 0, 0, 0); font-family: monospace; font-size: 0px; text-align: start; text-wrap-mode: nowrap;&quot;&gt;%3CmxGraphModel%3E%3Croot%3E%3CmxCell%20id%3D%220%22%2F%3E%3CmxCell%20id%3D%221%22%20parent%3D%220%22%2F%3E%3CmxCell%20id%3D%222%22%20value%3D%22Description%22%20style%3D%22rounded%3D0%3BwhiteSpace%3Dwrap%3Bhtml%3D1%3B%22%20vertex%3D%221%22%20parent%3D%221%22%3E%3CmxGeometry%20x%3D%22485.5%22%20y%3D%22370%22%20width%3D%2280%22%20height%3D%2230%22%20as%3D%22geometry%22%2F%3E%3C%2FmxCell%3E%3C%2Froot%3E%3C%2FmxGraphModel%3E&lt;/span&gt;" style="rounded=0;whiteSpace=wrap;html=1;" parent="1" vertex="1">
          <mxGeometry x="565.5" y="400" width="64.5" height="30" as="geometry" />
        </mxCell>
        <mxCell id="FswJCTiF_LaIAhzLPm2B-88" value="Payee" style="rounded=0;whiteSpace=wrap;html=1;" parent="1" vertex="1">
          <mxGeometry x="630" y="400" width="60" height="30" as="geometry" />
        </mxCell>
        <mxCell id="mLJ2cgPIcwkuUCMRMk4R-1" value="Home" style="text;html=1;align=center;verticalAlign=middle;whiteSpace=wrap;rounded=0;" vertex="1" parent="1">
          <mxGeometry x="273" y="308" width="60" height="30" as="geometry" />
        </mxCell>
        <mxCell id="mLJ2cgPIcwkuUCMRMk4R-2" value="Transactions" style="text;html=1;align=center;verticalAlign=middle;whiteSpace=wrap;rounded=0;" vertex="1" parent="1">
          <mxGeometry x="335" y="308" width="60" height="30" as="geometry" />
        </mxCell>
        <mxCell id="mLJ2cgPIcwkuUCMRMk4R-3" value="Items" style="text;html=1;align=center;verticalAlign=middle;whiteSpace=wrap;rounded=0;" vertex="1" parent="1">
          <mxGeometry x="395.5" y="308" width="60" height="30" as="geometry" />
        </mxCell>
        <mxCell id="mLJ2cgPIcwkuUCMRMk4R-4" value="Vehicles" style="text;html=1;align=center;verticalAlign=middle;whiteSpace=wrap;rounded=0;" vertex="1" parent="1">
          <mxGeometry x="450" y="308" width="60" height="30" as="geometry" />
        </mxCell>
        <mxCell id="mLJ2cgPIcwkuUCMRMk4R-5" value="" style="rounded=0;whiteSpace=wrap;html=1;" vertex="1" parent="1">
          <mxGeometry x="153" y="278" width="120" height="60" as="geometry" />
        </mxCell>
        <mxCell id="mLJ2cgPIcwkuUCMRMk4R-6" value="World Date" style="text;html=1;align=center;verticalAlign=middle;whiteSpace=wrap;rounded=0;" vertex="1" parent="1">
          <mxGeometry x="173" y="278" width="80" height="30" as="geometry" />
        </mxCell>
        <mxCell id="mLJ2cgPIcwkuUCMRMk4R-7" value="Spring 55, 1805 AG" style="text;html=1;align=center;verticalAlign=middle;whiteSpace=wrap;rounded=0;" vertex="1" parent="1">
          <mxGeometry x="153" y="308" width="117" height="30" as="geometry" />
        </mxCell>
        <mxCell id="mLJ2cgPIcwkuUCMRMk4R-8" value="Hirelings" style="text;html=1;align=center;verticalAlign=middle;whiteSpace=wrap;rounded=0;" vertex="1" parent="1">
          <mxGeometry x="510" y="308" width="60" height="30" as="geometry" />
        </mxCell>
        <mxCell id="mLJ2cgPIcwkuUCMRMk4R-9" value="Party" style="text;html=1;align=center;verticalAlign=middle;whiteSpace=wrap;rounded=0;" vertex="1" parent="1">
          <mxGeometry x="570" y="308" width="60" height="30" as="geometry" />
        </mxCell>
        <mxCell id="mLJ2cgPIcwkuUCMRMk4R-11" value="Add Payment" style="rounded=1;whiteSpace=wrap;html=1;" vertex="1" parent="1">
          <mxGeometry x="163" y="345" width="97" height="25" as="geometry" />
        </mxCell>
        <mxCell id="mLJ2cgPIcwkuUCMRMk4R-12" value="Add Income" style="rounded=1;whiteSpace=wrap;html=1;" vertex="1" parent="1">
          <mxGeometry x="593" y="345" width="97" height="25" as="geometry" />
        </mxCell>
      </root>
    </mxGraphModel>
  </diagram>
</mxfile>
